<?xml version="1.0" standalone="no"?>
<svg version="1.0" xmlns="http://www.w3.org/2000/svg"
 width="1212.000000pt" height="618.000000pt" viewBox="0 0 1212.000000 618.000000"
 preserveAspectRatio="xMidYMid meet">
<metadata>
Created by potrace 1.16, written by Peter Selinger 2001-2019
</metadata>
<g transform="translate(0.000000,618.000000) scale(0.100000,-0.100000)"
fill="#000000" stroke="none">
<path d="M3085 5993 c-443 -35 -788 -117 -1150 -273 -805 -345 -1399 -1032
-1616 -1870 -77 -295 -111 -676 -91 -995 29 -440 120 -784 309 -1157 275 -546
716 -981 1268 -1253 423 -208 821 -306 1305 -322 1079 -35 2057 458 2625 1322
346 526 500 1079 482 1729 -14 474 -107 855 -312 1271 -406 825 -1181 1387
-2095 1519 -212 31 -542 44 -725 29z m479 -162 c317 -65 562 -200 825 -456
202 -197 338 -388 481 -680 99 -200 140 -307 200 -511 171 -586 204 -1226 94
-1839 -157 -880 -554 -1548 -1123 -1894 -323 -196 -760 -259 -1189 -171 -141
28 -240 63 -377 130 -512 250 -896 755 -1099 1445 -177 602 -209 1302 -90
1973 145 825 490 1424 1024 1779 186 124 419 210 660 243 116 16 482 4 594
-19z"/>
<path d="M6850 5881 c0 -39 0 -39 48 -45 93 -13 208 -38 269 -57 122 -40 265
-157 309 -253 45 -98 86 -330 104 -581 17 -254 25 -2198 11 -3000 -15 -869
-23 -992 -82 -1229 -28 -111 -59 -165 -130 -229 -105 -96 -270 -170 -491 -222
l-118 -28 0 -38 0 -39 1498 0 c1412 0 1795 6 2057 30 216 20 411 61 581 121
441 156 807 524 948 954 101 308 94 678 -18 948 -96 232 -275 451 -496 610
-228 162 -575 297 -879 341 -116 16 -121 35 -14 60 383 90 736 299 922 547
197 261 269 611 205 989 -30 173 -102 343 -205 481 -60 81 -221 237 -309 300
-301 214 -690 334 -1198 369 -96 6 -693 10 -1583 10 l-1429 0 0 -39z m2360
-71 c289 -15 503 -55 693 -130 380 -148 658 -486 748 -912 32 -147 32 -399 1
-545 -113 -528 -500 -886 -1082 -1002 -193 -38 -263 -43 -684 -48 l-419 -5 6
963 c6 962 20 1410 48 1563 12 64 14 66 48 76 68 18 171 32 283 39 163 11 166
11 358 1z m453 -2783 c391 -57 694 -200 932 -442 181 -183 311 -420 366 -665
38 -168 35 -426 -6 -605 -86 -367 -333 -667 -700 -849 -275 -136 -518 -181
-980 -180 -259 0 -323 9 -445 58 -91 37 -186 109 -226 171 -113 177 -123 298
-131 1594 l-6 943 544 -5 c418 -4 569 -8 652 -20z"/>
</g>
</svg>
